<svg width="16" height="16" viewBox="0 0 16 16" fill="none" xmlns="http://www.w3.org/2000/svg">
<path d="M7.93311 14.9934C10.7481 14.9849 13.0519 14.9774 13.0529 14.9769C13.0654 14.9695 11.3001 14.8506 11.2536 14.8149C11.1615 14.7436 12.7103 14.7111 12.539 14.6617L12.4507 14.6362L11.9244 14.6265C11.4406 14.6176 11.3932 14.6157 11.3381 14.6026C10.9759 14.5165 10.6898 14.5544 10.4603 14.7189C10.2937 14.8384 10.203 14.8134 10.1877 14.6438L10.1831 14.5922L10.1407 14.5751C9.9153 14.4841 9.672 14.4825 9.38481 14.5705C9.24542 14.6132 9.04665 14.6635 8.99399 14.6694L8.95202 14.6742L8.85568 14.6198C8.60156 14.4765 8.09278 14.2496 7.93716 14.2102C7.70049 14.1502 7.56081 14.1997 7.42907 14.3902C7.36471 14.4833 7.37354 14.4792 7.1349 14.528C6.69098 14.6188 6.44747 14.6855 6.18125 14.7892C5.96558 14.8732 5.88599 14.8695 5.73573 14.7684C5.60112 14.6778 5.58474 14.6715 5.08109 14.5201L4.80901 14.4383L4.75868 14.4865C4.731 14.5131 4.67657 14.5654 4.63772 14.6027L4.56709 14.6706L3.96308 14.7456C3.36454 14.82 4.56909 14.9024 3.50146 14.9934C2.90894 15.0439 5.19049 14.7879 5.18076 14.7892C5.14166 14.7945 3.06029 15.0084 7.93319 14.9936L7.93311 14.9934ZM3.99886 14.3968C3.83199 14.265 3.91717 14.1242 4.17855 14.0997C4.42521 14.0765 5.24833 14.1891 5.96578 14.3441C6.00853 14.3533 6.04558 14.3587 6.04815 14.356C6.05412 14.3499 6.70312 13.1377 6.70142 13.1359C6.69962 13.1341 6.31473 13.1914 6.07529 13.2292C3.85483 13.5797 2.69937 14.0221 3.06756 14.3809L3.09771 14.4103L3.50146 14.4178C3.72351 14.4219 3.93444 14.4253 3.97011 14.4253H4.035L3.99886 14.3968ZM7.21962 14.1735C7.21933 14.1476 7.12015 13.2225 7.11736 13.2197C7.11536 13.2176 7.11374 13.2226 7.11374 13.2307C7.11374 13.308 6.81091 13.7398 6.50549 14.0981L6.45052 14.1626L6.63555 14.1668C7.12345 14.1778 7.2197 14.1789 7.21962 14.1735ZM9.8049 12.9349C10.1752 12.4521 10.4833 12.0514 10.4894 12.0442C10.5202 12.0083 10.242 11.6192 9.97392 11.3232C8.707 9.92412 6.682 9.41894 4.60923 9.98482L4.58095 9.99253L4.0851 10.7988C3.81237 11.2423 3.59032 11.6062 3.59167 11.6075C3.59296 11.6088 3.61583 11.599 3.64245 11.5856C3.98437 11.4141 4.5227 11.2539 4.97336 11.1897C6.77832 10.9314 8.23902 11.8383 9.10686 13.7573L9.13192 13.8128L9.80527 12.9351L9.8049 12.9349ZM3.05862 13.4353C3.33402 13.1937 4.11052 12.985 5.18076 12.865C5.28529 12.8533 5.37144 12.8428 5.37216 12.8418C5.37294 12.8408 5.49037 12.5382 5.63317 12.1695C5.77599 11.8007 5.89428 11.4955 5.89601 11.4911C5.89776 11.4868 5.89029 11.4813 5.8794 11.479C5.19229 11.3326 4.6092 11.4016 4.02321 11.6988C3.91021 11.7561 3.71002 11.8811 3.68727 11.9085C3.67752 11.9202 3.02185 13.4586 3.02527 13.4617C3.02616 13.4625 3.04111 13.4506 3.05862 13.4353ZM10.7572 11.1803C11.1583 10.3869 11.3359 9.70422 11.2393 9.32675C11.193 9.14582 10.7273 8.6458 10.3204 8.34008C9.1127 7.43251 7.6124 7.25113 5.962 7.81299L5.78893 7.87193L5.35928 8.64693C5.12298 9.07323 4.93115 9.42345 4.93298 9.42528C4.93482 9.42711 4.98824 9.42215 5.05179 9.41432C7.50311 9.11086 9.65424 9.81779 10.6183 11.2436L10.6794 11.3339L10.7571 11.1801L10.7572 11.1803ZM11.2299 8.51252C11.2407 8.47406 11.2352 8.04142 11.2224 7.91748C11.0496 6.24177 10.0066 4.98526 8.24056 4.32533C8.05143 4.25464 7.99657 4.23748 7.98783 4.24623C7.97752 4.2565 6.16768 7.30649 6.17029 7.30918C6.17147 7.31036 6.20961 7.30007 6.25511 7.28629C6.97011 7.06975 7.9006 7.03447 8.68238 7.19417C9.62609 7.38706 10.4003 7.78985 11.1841 8.49552L11.2244 8.53191L11.23 8.51215L11.2299 8.51252ZM8.338 3.78014C8.40345 3.1931 8.67202 2.84888 9.48465 2.31036C9.56685 2.25589 9.63993 2.20735 9.64713 2.20247C9.67272 2.18512 9.48112 2.20861 9.34024 2.24011C8.69716 2.38385 8.15073 2.80253 7.97532 3.28586C7.96651 3.31012 7.95838 3.32995 7.95724 3.32995C7.9561 3.32995 7.92554 3.32203 7.8893 3.31231C7.08465 3.09639 6.34678 3.27666 6.06534 3.75795C6.01677 3.84095 6.01812 3.84282 6.09125 3.79474C6.42926 3.57248 6.82635 3.52894 7.39962 3.65133C7.67863 3.71088 7.81418 3.75507 8.31135 3.94856C8.31622 3.95046 8.32557 3.89165 8.338 3.78014ZM7.27594 2.00008C7.27594 1.6514 7.45646 1.39583 7.92729 1.07792C8.05614 0.990969 8.05605 0.989872 7.92539 1.01223C7.52886 1.07995 7.18111 1.33576 7.07631 1.63672C7.07278 1.64692 7.0675 1.64672 7.02053 1.63469C6.55518 1.51526 6.12453 1.62782 5.98231 1.90602C5.9657 1.9385 5.96639 1.93854 6.01576 1.907C6.27137 1.74363 6.64559 1.75916 7.14986 1.95411C7.20174 1.97415 7.25132 1.99329 7.26005 1.99663C7.26882 1.99996 7.27594 2.00151 7.27594 2.00008Z" fill="url(#paint0_linear_130_118)"/>
<defs>
<linearGradient id="paint0_linear_130_118" x1="7.5595" y1="15.0644" x2="7.5595" y2="-2.34063" gradientUnits="userSpaceOnUse">
<stop offset="0.42615" stop-color="#00D900"/>
<stop offset="0.928583" stop-color="#FDFF00"/>
</linearGradient>
</defs>
</svg>
