<svg width="24" height="35" viewBox="0 0 24 35" fill="none" xmlns="http://www.w3.org/2000/svg">
<path d="M10.1567 0.108021C7.1007 0.652664 4.46825 2.16556 2.66791 4.38952C0.232141 7.43045 -0.539437 11.0311 0.368301 15.1614C0.928074 17.7182 2.68303 21.7273 4.6498 24.9649C6.34425 27.7184 9.37004 31.7881 11.3217 33.9213L12.0176 34.6777L12.653 33.9969C15.5427 30.8652 19.4459 25.1919 21.3068 21.3945C23.3038 17.3248 24.0149 14.8436 23.9998 11.9086C23.9846 6.46219 20.626 1.99914 15.4216 0.486244C13.9239 0.0475044 11.4427 -0.134045 10.1567 0.108021ZM13.9087 7.59686C14.2416 7.76328 14.8013 8.1869 15.1493 8.54999C17.8271 11.2883 15.8604 15.8875 12.0176 15.8875C10.2021 15.8875 8.76488 14.9495 8.00844 13.24C7.46379 12.0297 7.50918 10.8193 8.17485 9.5485C8.64385 8.61051 9.67262 7.70277 10.5652 7.40019C11.3066 7.143 13.2128 7.26403 13.9087 7.59686Z" fill="#21A038"/>
</svg>
